<svg width="138" height="137" viewBox="0 0 138 137" fill="none" xmlns="http://www.w3.org/2000/svg">
<path d="M130.501 59H124.001V65.5H117.501V72H111.001V78.5H98.001V65.5H91.501V52.5H85.001V39.5H78.501V26.5H59.001V39.5H52.501V52.5H46.001V65.5H39.501V78.5H26.501V72H20.001V65.5H13.501V59H7.00098V52.5H0.500977V137H137.011V52.5H130.511V59H130.501ZM72.001 39.5V59H78.501V72H85.001V85H91.501V91.5H98.001V98H111.001V91.5H117.501V85H124.001V124H13.501V85H20.001V91.5H26.501V98H39.501V91.5H46.001V85H52.501V72H59.001V59H65.501V39.5H72.001ZM137.001 33V46H124.001V33H137.001ZM65.501 13.5H59.001V0.5H78.501V13.5H65.501ZM65.501 20H72.001V26.5H65.501V20ZM7.00098 46H0.500977V33H13.501V46H7.00098Z" fill="#1919FF"/>
</svg>
