<svg width="137" height="137" viewBox="0 0 137 137" fill="none" xmlns="http://www.w3.org/2000/svg">
<path d="M130.001 46V33H123.501V0.5H104.001V7H97.501V13.5H91.001V20H45.501V13.5H39.001V7H32.501V0.5H13.001V33H6.50098V46H0.000976562V111H6.50098V117.5H13.001V124H19.501V130.5H32.501V137H110.501V130.5H117.001V124H123.501V117.5H130.001V111H136.501V46H130.001ZM26.001 117.5V111H19.501V104.5H13.001V46H19.501V39.5H26.001V20H32.501V26.5H39.001V33H97.501V26.5H104.001V20H110.501V39.5H117.001V46H123.501V104.5H117.001V111H110.501V117.5H104.001V124H32.501V117.5H26.001ZM91.001 59H84.501V46H97.501V59H91.001ZM45.501 59H39.001V46H52.001V59H45.501ZM32.501 98H26.001V85H19.501V78.5H32.501V91.5H39.001V98H45.501V104.5H65.001V85H52.001V78.5H45.501V65.5H91.001V78.5H84.501V72H78.001V78.5H84.501V85H71.501V104.5H91.001V98H97.501V91.5H104.001V78.5H117.001V85H110.501V98H104.001V104.5H97.501V111H39.001V104.5H32.501V98Z" fill="#1919FF"/>
</svg>
