<svg width="137" height="137" viewBox="0 0 137 137" fill="none" xmlns="http://www.w3.org/2000/svg">
<path d="M130.501 26V13H117.501V6.5H104.501V0H85.001V6.5H78.501V0H33.001V6.5H20.001V13H7.00098V26H0.500977V58.5H13.501V71.5H20.001V117H26.501V123.5H33.001V130H39.501V136.5H91.501V130H98.001V123.5H104.501V117H111.001V104H117.501V71.5H124.001V58.5H137.001V26H130.501ZM91.501 13H104.501V19.5H117.501V26H78.501V19.5H85.001V13H91.501ZM98.001 39H65.501V32.5H104.501V39H98.001ZM52.501 6.5H72.001V13H46.001V6.5H52.501ZM26.501 19.5H65.501V26H52.501V32.5H33.001V26H20.001V19.5H26.501ZM39.501 117V110.5H33.001V65H26.501V52H13.501V39H20.001V45.5H46.001V52H59.001V65H52.501V91H46.001V123.5H39.501V117ZM117.501 52V58.5H111.001V71.5H104.501V104H91.501V117H85.001V123.5H59.001V97.5H65.501V71.5H72.001V58.5H85.001V52H111.001V45.5H124.001V52H117.501ZM130.501 39H124.001V32.5H130.501V39Z" fill="#1919FF"/>
</svg>
