<svg width="137" height="137" viewBox="0 0 137 137" fill="none" xmlns="http://www.w3.org/2000/svg">
<path d="M130.001 32.5V19.5H123.501V13H117.001V6.5H110.501V0H26.001V6.5H19.501V13H13.001V19.5H6.50098V32.5H0.000976562V110.5H6.50098V117H13.001V123.5H19.501V130H26.001V136.5H110.501V130H117.001V123.5H123.501V117H130.001V110.5H136.501V32.5H130.001ZM19.501 32.5V26H26.001V19.5H32.501V13H104.001V19.5H110.501V26H117.001V32.5H123.501V104H117.001V110.5H110.501V117H104.001V123.5H32.501V117H26.001V110.5H19.501V104H13.001V32.5H19.501ZM91.001 52H84.501V39H104.001V52H91.001ZM39.001 52H32.501V39H52.001V52H39.001ZM26.001 84.5H19.501V65H32.501V78H39.001V91H45.501V97.5H91.001V91H97.501V78H104.001V65H117.001V84.5H110.501V97.5H104.001V104H97.501V110.5H39.001V104H32.501V97.5H26.001V84.5Z" fill="#1919FF"/>
</svg>
