<svg width="274" height="274" viewBox="0 0 274 274" fill="none" xmlns="http://www.w3.org/2000/svg">
<path d="M260.501 39.5V26.5H247.511V13.51H234.511V0.51001H169.511V13.51H156.511V26.5H143.511V52.51H130.521V26.5H117.521V13.51H104.521V0.51001H39.5007V13.51H26.5007V26.5H13.5107V39.5H0.510742V156.5H13.5107V169.5H26.5007V195.5H39.5007V208.5H52.5007V221.49H65.4907V234.49H78.4907V247.49H91.4908V260.48H104.481V273.48H169.491V260.48H182.481V247.49H195.481V234.49H208.481V221.49H221.471V208.5H234.471V195.5H247.471V169.5H260.461V156.5H273.461V39.5H260.461H260.501ZM247.511 65.5V130.51H234.511V156.51H221.511V182.51H208.521V195.51H195.521V208.51H182.521V221.5H169.531V234.5H143.521V247.5H130.531V234.5H104.521V221.5H91.5307V208.51H78.5307V195.51H65.5307V182.51H52.5407V156.51H39.5407V130.51H26.5407V65.5H39.5407V39.5H52.5407V26.5H91.5407V39.5H104.531V65.5H117.531V78.5H130.531V91.5H117.531V104.49H104.531V117.49H117.531V130.49H130.531V143.48H117.531V156.48H104.531V169.48H117.531V182.47H130.531V195.47H117.531V221.47H130.531V234.47H143.521V221.47H156.521V208.48H143.521V195.48H169.531V182.48H156.531V169.49H143.531V156.49H156.531V130.49H143.531V117.49H130.541V104.49H143.531V91.5H156.531V65.49H169.531V39.49H182.521V26.49H221.521V39.49H234.521V52.49H247.521V65.48L247.511 65.5ZM156.511 117.5H143.511V104.5H156.511V117.5Z" fill="#1919FF"/>
</svg>
